:SAMPLES-PER-SECOND 30
:FULLY-SPECIFIED
:DEGREES
641
root  72.8423 40.3785 -1.87886 -145.62 -85.5636 145.985
RightUpLeg  2.7884 -9.41034 -7.05593
RightLeg  5.28671 -6.88448 3.4598
RightFoot  -6.68746 -0.00956617 -0.879837
RightToes  0.00048216 0.542163 -0.142577
Spine  -1.18606 -0.631608 -0.570424
Spine1  10.3874 -1.37241 2.91389
HEad  -6.29975 7.09632 -2.58945
LeftShoulder1  7.43568 -11.0337 -44.5426
LeftArm  -11.2298 20.735 -28.4243
LeftForeArm  33.1664 -28.8216 -4.43169
LeftHand  -0.25398 0.0180481 5.50724
RightShoulder  4.73968 8.23502 34.4232
RightArm  -0.313207 -27.365 35.4279
RightForeArm  102.055 79.1774 107.375
RightHand  -4.01071 11.2208 -27.9385
LeftUpLeg  2.28366 3.9816 0.387836
LeftLeg  1.4346 15.3354 -4.16355
LeftFoot  -3.69174 -0.0592129 1.21997
LeftToes  1.06246e-005 4.65856e-005 -8.18502e-006
642
root  72.829 40.368 -1.67337 -150.37 -85.0708 150.435
RightUpLeg  2.95834 -9.45891 -7.36378
RightLeg  5.42913 -6.11157 3.35139
RightFoot  -6.73859 -0.0262845 -0.48144
RightToes  0.00048216 0.542163 -0.142577
Spine  -1.04671 -0.592306 -0.499932
Spine1  10.3815 -1.27052 2.6743
HEad  -6.59272 7.0666 -2.58759
LeftShoulder1  7.57798 -11.2039 -44.8858
LeftArm  -9.5577 20.8976 -28.474
LeftForeArm  32.1608 -25.7037 -3.80043
LeftHand  -0.25398 0.0180481 5.50724
RightShoulder  4.7361 8.22733 34.4192
RightArm  0.770364 -26.106 35.083
RightForeArm  101.419 79.1782 107.076
RightHand  -4.34261 12.0992 -28.691
LeftUpLeg  2.68976 4.04015 0.188849
LeftLeg  1.43729 15.8234 -4.29039
LeftFoot  -3.94542 -0.0682385 1.42471
LeftToes  1.06246e-005 4.65856e-005 -8.18502e-006
643
root  72.8178 40.3505 -1.47624 -152.388 -84.8468 152.14
RightUpLeg  3.12073 -9.5561 -7.71619
RightLeg  5.73194 -5.56579 3.25098
RightFoot  -6.8779 -0.0505063 0.098592
RightToes  0.00048216 0.542163 -0.142577
Spine  -0.715345 -0.646334 -0.50999
Spine1  10.306 -1.27459 2.46043
HEad  -7.26295 7.42023 -2.34931
LeftShoulder1  7.63428 -11.2584 -45.0597
LeftArm  -8.19392 21.0726 -28.6576
LeftForeArm  31.6603 -22.8196 -3.34233
LeftHand  -0.25398 0.0180481 5.50724
RightShoulder  4.74744 8.27789 34.3433
RightArm  1.46951 -25.0178 35.1033
RightForeArm  101.036 79.2023 106.667
RightHand  -4.66906 12.9933 -29.3148
LeftUpLeg  2.93017 4.02367 -0.0696167
LeftLeg  1.7141 16.1635 -4.26191
LeftFoot  -4.34785 -0.0728151 1.62077
LeftToes  1.06246e-005 4.65856e-005 -8.18502e-006
644
root  72.8047 40.3308 -1.29289 -152.936 -84.8132 152.409
RightUpLeg  3.24195 -9.70063 -8.0732
RightLeg  6.13585 -5.29078 3.16966
RightFoot  -7.07934 -0.0660339 0.482449
RightToes  0.00048216 0.542163 -0.142577
Spine  -0.413805 -0.650139 -0.520405
Spine1  10.3424 -1.21752 2.2008
HEad  -7.97751 7.53281 -1.85887
LeftShoulder1  7.56024 -11.1567 -44.9261
LeftArm  -7.99459 21.1571 -29.1198
LeftForeArm  32.0763 -20.3533 -3.36767
LeftHand  -0.25398 0.0180481 5.50724
RightShoulder  4.78482 8.37642 34.324
RightArm  1.69236 -24.2574 35.3777
RightForeArm  101.149 79.1993 106.749
RightHand  -4.84848 13.4939 -29.6153
LeftUpLeg  3.01325 3.90352 -0.392452
LeftLeg  2.18993 16.4249 -4.06869
LeftFoot  -4.78429 -0.0671306 1.67377
LeftToes  1.06246e-005 4.65856e-005 -8.18502e-006
645
root  72.7791 40.3004 -1.12019 -152.847 -84.9435 152.039
RightUpLeg  3.40384 -9.90129 -8.39554
RightLeg  6.6142 -5.10723 3.09331
RightFoot  -7.46791 -0.0751489 0.726419
RightToes  0.00048216 0.542163 -0.142577
Spine  -0.120836 -0.508224 -0.429547
Spine1  10.4766 -0.989234 1.89527
HEad  -8.73069 6.90723 -1.3307
LeftShoulder1  7.5412 -11.156 -44.8105
LeftArm  -8.46312 21.377 -29.464
LeftForeArm  32.3519 -18.8137 -3.56008
LeftHand  -0.25398 0.0180481 5.50724
RightShoulder  4.78412 8.35896 34.3767
RightArm  1.53266 -23.922 35.87
RightForeArm  102.149 79.0924 108.206
RightHand  -4.96125 13.6436 -30.0369
LeftUpLeg  3.05072 3.81538 -0.641665
LeftLeg  2.85227 16.3947 -3.85199
LeftFoot  -5.43025 -0.0472559 1.5479
LeftToes  1.06246e-005 4.65856e-005 -8.18502e-006
646
root  72.7334 40.2531 -0.945996 -152.213 -85.2696 151.041
RightUpLeg  3.6818 -10.1295 -8.68994
RightLeg  7.19714 -4.94137 2.9783
RightFoot  -8.00876 -0.088269 1.17017
RightToes  0.00048216 0.542163 -0.142577
Spine  0.406259 -0.298459 -0.273411
Spine1  10.4825 -0.714586 1.72201
HEad  -9.36989 5.83809 -0.891827
LeftShoulder1  7.63988 -11.2861 -45.0062
LeftArm  -8.70248 21.8888 -29.4104
LeftForeArm  31.8497 -18.3512 -3.64257
LeftHand  -0.25398 0.0180481 5.50724
RightShoulder  4.72053 8.19785 34.3882
RightArm  1.27101 -23.9542 36.453
RightForeArm  103.922 78.8808 110.802
RightHand  -5.17448 13.8419 -30.9448
LeftUpLeg  3.09478 3.8303 -0.810024
LeftLeg  3.78092 16.0596 -3.58843
LeftFoot  -6.36667 -0.0283725 1.54132
LeftToes  1.06246e-005 4.65856e-005 -8.18502e-006
647
root  72.6673 40.1959 -0.767088 -151.052 -85.7233 149.433
RightUpLeg  3.97077 -10.4157 -8.94601
RightLeg  8.00886 -4.91733 2.74047
RightFoot  -8.49031 -0.0982891 1.62916
RightToes  0.00048216 0.542163 -0.142577
Spine  1.12455 -0.148468 -0.0422737
Spine1  10.3976 -0.520326 1.62026
HEad  -9.92181 4.86253 -0.570537
LeftShoulder1  7.69152 -11.2962 -45.2907
LeftArm  -8.63811 22.4909 -29.2063
LeftForeArm  31.2312 -18.4907 -3.64046
LeftHand  -0.25398 0.0180481 5.50724
RightShoulder  4.68663 8.09914 34.4384
RightArm  1.1284 -24.1234 36.8433
RightForeArm  105.815 78.6933 113.038
RightHand  -5.28694 13.8903 -31.5057
LeftUpLeg  3.1282 4.05131 -0.988471
LeftLeg  4.9758 15.4587 -3.14183
LeftFoot  -7.38883 -0.0130559 1.66808
LeftToes  1.06246e-005 4.65856e-005 -8.18502e-006
